<svg width="30" height="28" viewBox="0 0 30 28" fill="none" xmlns="http://www.w3.org/2000/svg">
<path d="M4.73138 16.2725H9.12592C11.0336 16.2726 12.5195 17.7577 12.5195 19.5156V23.7578C12.5193 25.5156 11.0335 26.9999 9.12592 27H4.73138C2.82387 26.9998 1.33796 25.5155 1.33783 23.7578V19.5156C1.33783 17.7578 2.82378 16.2727 4.73138 16.2725ZM20.5497 16.2725H24.9443C26.8519 16.2727 28.3378 17.7578 28.3378 19.5156V23.7578C28.3377 25.5155 26.8518 26.9998 24.9443 27H20.5497C18.6421 26.9999 17.1563 25.5156 17.1562 23.7578V19.5156C17.1562 17.7577 18.6421 16.2726 20.5497 16.2725ZM4.73138 1H9.12592C11.0335 1.00011 12.5193 2.4844 12.5195 4.24219V8.48438C12.5195 10.2423 11.0336 11.7274 9.12592 11.7275H4.73138C2.82378 11.7273 1.33783 10.2422 1.33783 8.48438V4.24219C1.33796 2.48445 2.82387 1.0002 4.73138 1ZM20.5497 1H24.9443C26.8518 1.0002 28.3377 2.48445 28.3378 4.24219V8.48438C28.3378 10.2422 26.8519 11.7273 24.9443 11.7275H20.5497C18.6421 11.7274 17.1562 10.2423 17.1562 8.48438V4.24219C17.1563 2.4844 18.6421 1.00011 20.5497 1Z" stroke="white" stroke-width="2"/>
</svg>
