<svg width="29" height="29" viewBox="0 0 29 29" fill="none" xmlns="http://www.w3.org/2000/svg">
<path d="M13.2128 22.5882C13.2128 22.8564 13.3172 23.1136 13.5031 23.3033C13.6889 23.493 13.941 23.5995 14.2038 23.5995C14.4666 23.5995 14.7187 23.493 14.9045 23.3033C15.0903 23.1136 15.1948 22.8564 15.1948 22.5882V18.5426C15.1948 18.2744 15.0903 18.0171 14.9045 17.8275C14.7187 17.6378 14.4666 17.5312 14.2038 17.5312C13.941 17.5312 13.6889 17.6378 13.5031 17.8275C13.3172 18.0171 13.2128 18.2744 13.2128 18.5426V22.5882Z" fill="white"/>
<path fill-rule="evenodd" clip-rule="evenodd" d="M14.2038 0C13.2683 0 12.4187 0.273748 11.4951 0.730892C10.6046 1.1732 9.574 1.82588 8.28839 2.64038L5.55731 4.37052C4.34173 5.14187 3.3653 5.75949 2.61481 6.34609C1.83658 6.95292 1.23936 7.57323 0.807302 8.37829C0.376565 9.18065 0.183658 10.0356 0.089847 11.0456C-5.90658e-08 12.0233 0 13.2208 0 14.7217V16.8968C0 19.4644 0 21.4912 0.202156 23.0757C0.408276 24.7007 0.844298 26.0128 1.82733 27.0498C2.81433 28.0922 4.06954 28.5587 5.62601 28.7785C7.13227 28.993 9.0587 28.993 11.4846 28.993H16.923C19.3488 28.993 21.2753 28.993 22.7815 28.7785C24.3367 28.5587 25.5932 28.0922 26.5815 27.0498C27.5632 26.0128 27.9993 24.7007 28.2067 23.0757C28.4075 21.4912 28.4075 19.4644 28.4075 16.8968V14.7217C28.4075 13.2208 28.4075 12.0247 28.3177 11.0456C28.2252 10.0343 28.031 9.18065 27.6002 8.37829C27.1682 7.57323 26.5696 6.95426 25.7927 6.34609C25.0422 5.75814 24.0671 5.14187 22.8502 4.37052L20.1191 2.64038C18.8335 1.82588 17.8029 1.1732 16.9111 0.730892C15.9901 0.272399 15.1406 0 14.2038 0ZM9.2886 4.38805C10.6297 3.53849 11.5744 2.94245 12.3632 2.55003C13.1309 2.1684 13.6753 2.02276 14.2038 2.02276C14.7323 2.02276 15.2766 2.1684 16.0443 2.55003C16.8344 2.9411 17.7778 3.53849 19.1189 4.38805L21.7615 6.06155C23.0312 6.86661 23.9231 7.43164 24.589 7.95216C25.2351 8.45785 25.6064 8.87454 25.8614 9.34922C26.1164 9.82524 26.2657 10.3822 26.3437 11.2344C26.4243 12.1083 26.4256 13.21 26.4256 14.7716V16.8227C26.4256 19.4792 26.423 21.3752 26.2406 22.8141C26.0609 24.2273 25.7214 25.0472 25.1572 25.6446C24.5956 26.2366 23.8319 26.5886 22.5093 26.776C21.1537 26.9675 19.366 26.9702 16.8463 26.9702H11.5612C9.0402 26.9702 7.25383 26.9675 5.8982 26.776C4.57559 26.5872 3.81189 26.2366 3.25167 25.6433C2.68616 25.0472 2.34659 24.2273 2.16822 22.8141C1.98324 21.3752 1.98192 19.4806 1.98192 16.8227V14.7716C1.98192 13.21 1.98192 12.1083 2.06384 11.2344C2.1418 10.3822 2.2911 9.82524 2.54611 9.34922C2.80111 8.87454 3.17239 8.45785 3.81982 7.95216C4.48443 7.43164 5.37629 6.86661 6.64604 6.06155L9.2886 4.38805Z" fill="white"/>
</svg>
