<svg width="33" height="25" viewBox="0 0 33 25" fill="none" xmlns="http://www.w3.org/2000/svg">
<path fill-rule="evenodd" clip-rule="evenodd" d="M31.7942 4.0992C32.2248 3.63713 32.4592 3.02598 32.4481 2.3945C32.4369 1.76302 32.1811 1.16052 31.7345 0.713928C31.2879 0.267336 30.6854 0.0115215 30.0539 0.000379753C29.4225 -0.010762 28.8113 0.223638 28.3492 0.654198L10.2857 18.7144L4.1985 12.4225C3.97641 12.1904 3.71064 12.0045 3.41646 11.8755C3.12229 11.7465 2.80552 11.6769 2.48437 11.6707C2.16321 11.6645 1.844 11.7219 1.54509 11.8395C1.24617 11.9571 0.973451 12.1326 0.7426 12.356C0.511749 12.5793 0.327323 12.8461 0.199921 13.141C0.0725193 13.4359 0.00465471 13.753 0.000231163 14.0742C-0.00419239 14.3954 0.0549105 14.7143 0.174143 15.0125C0.293376 15.3108 0.470386 15.5826 0.694998 15.8122L8.50475 23.8852C8.72946 24.1183 8.99834 24.3042 9.29571 24.4322C9.59307 24.5602 9.91295 24.6277 10.2367 24.6307C10.5604 24.6338 10.8815 24.5723 11.1812 24.4498C11.4809 24.3274 11.7532 24.1465 11.9822 23.9177L31.7942 4.0992Z" fill="white"/>
</svg>
