<svg width="18" height="18" viewBox="0 0 18 18" fill="none" xmlns="http://www.w3.org/2000/svg">
<path d="M7.82226 1.70539C7.94226 1.49076 8.11417 1.31268 8.32082 1.18891C8.52747 1.06514 8.76165 1 9 1C9.23835 1 9.47253 1.06514 9.67918 1.18891C9.88583 1.31268 10.0577 1.49076 10.1777 1.70539L11.8299 4.66046C11.925 4.83101 12.0531 4.97905 12.2061 5.09516C12.3591 5.21126 12.5337 5.29288 12.7186 5.33482L15.9265 6.05843C16.1593 6.1112 16.3748 6.22665 16.5515 6.39329C16.7282 6.55992 16.8599 6.77192 16.9334 7.00813C17.007 7.24435 17.0198 7.49654 16.9707 7.73955C16.9216 7.98256 16.8122 8.2079 16.6535 8.39312L14.468 10.9438C14.3419 11.0908 14.2466 11.2636 14.188 11.4511C14.1295 11.6386 14.1091 11.8368 14.1281 12.033L14.458 15.436C14.482 15.6832 14.4434 15.9327 14.3461 16.1595C14.2487 16.3863 14.096 16.5825 13.9032 16.7286C13.7103 16.8746 13.4841 16.9654 13.2471 16.9919C13.01 17.0184 12.7705 16.9796 12.5523 16.8795L9.54979 15.5004C9.37656 15.4208 9.18932 15.3797 9 15.3797C8.81068 15.3797 8.62344 15.4208 8.45021 15.5004L5.44769 16.8795C5.22953 16.9796 4.98998 17.0184 4.75294 16.9919C4.51591 16.9654 4.28969 16.8746 4.09684 16.7286C3.904 16.5825 3.75128 16.3863 3.65393 16.1595C3.55658 15.9327 3.518 15.6832 3.54204 15.436L3.87192 12.033C3.89102 11.8368 3.87074 11.6387 3.81239 11.4512C3.75403 11.2637 3.65887 11.0909 3.53296 10.9438L1.3465 8.39312C1.18777 8.2079 1.07839 7.98256 1.02927 7.73955C0.980157 7.49654 0.993018 7.24435 1.06657 7.00813C1.14013 6.77192 1.27181 6.55992 1.44849 6.39329C1.62516 6.22665 1.84066 6.1112 2.0735 6.05843L5.28139 5.33482C5.46642 5.29311 5.64109 5.21169 5.79426 5.09575C5.94744 4.97981 6.07576 4.83188 6.17106 4.6614L7.82226 1.70539Z" stroke="white" stroke-opacity="0.5" stroke-linecap="round" stroke-linejoin="round"/>
</svg>
