<svg width="29" height="26" viewBox="0 0 29 26" fill="none" xmlns="http://www.w3.org/2000/svg">
<path d="M24.9758 8.99987H4.02422C3.72665 8.9938 3.43153 9.05529 3.16074 9.17978C2.88994 9.30428 2.6504 9.4886 2.45986 9.71908C2.26932 9.94956 2.13266 10.2203 2.06001 10.5112C1.98736 10.8022 1.98058 11.1059 2.04017 11.3998L4.22262 22.3996C4.31538 22.8582 4.56472 23.2694 4.92724 23.5617C5.28977 23.8541 5.74251 24.009 6.20667 23.9996H22.7933C23.2575 24.009 23.7102 23.8541 24.0728 23.5617C24.4353 23.2694 24.6846 22.8582 24.7774 22.3996L26.9598 11.3998C27.0194 11.1059 27.0126 10.8022 26.94 10.5112C26.8673 10.2203 26.7307 9.94956 26.5401 9.71908C26.3496 9.4886 26.1101 9.30428 25.8393 9.17978C25.5685 9.05529 25.2734 8.9938 24.9758 8.99987ZM18.4681 2L22.4362 8.99987L18.4681 2ZM6.5638 8.99987L10.5319 2L6.5638 8.99987Z" fill="#9EFF44"/>
<path d="M18.4681 2L22.4362 8.99987M6.5638 8.99987L10.5319 2M24.9758 8.99987H4.02422C3.72665 8.9938 3.43153 9.05529 3.16074 9.17978C2.88994 9.30428 2.6504 9.4886 2.45986 9.71908C2.26932 9.94956 2.13266 10.2203 2.06001 10.5112C1.98736 10.8022 1.98058 11.1059 2.04017 11.3998L4.22262 22.3996C4.31538 22.8582 4.56472 23.2694 4.92724 23.5617C5.28977 23.8541 5.74251 24.009 6.20667 23.9996H22.7933C23.2575 24.009 23.7102 23.8541 24.0728 23.5617C24.4353 23.2694 24.6846 22.8582 24.7774 22.3996L26.9598 11.3998C27.0194 11.1059 27.0126 10.8022 26.94 10.5112C26.8673 10.2203 26.7307 9.94956 26.5401 9.71908C26.3496 9.4886 26.1101 9.30428 25.8393 9.17978C25.5685 9.05529 25.2734 8.9938 24.9758 8.99987Z" stroke="#636363" stroke-width="2.5" stroke-linecap="round" stroke-linejoin="round"/>
</svg>
