<svg width="33" height="32" viewBox="0 0 33 32" fill="none" xmlns="http://www.w3.org/2000/svg">
<path d="M32.3378 15.984C32.3378 7.16 25.1698 0 16.3378 0C7.50583 0 0.33783 7.16 0.33783 15.984C0.33783 20.844 2.54583 25.224 6.00183 28.164C6.03383 28.196 6.06583 28.196 6.06583 28.228C6.35383 28.452 6.64183 28.676 6.96183 28.9C7.12183 28.996 7.24983 29.122 7.40983 29.25C10.055 31.0405 13.1756 31.9983 16.3698 32C19.564 31.9983 22.6846 31.0405 25.3298 29.25C25.4898 29.154 25.6178 29.028 25.7778 28.93C26.0658 28.708 26.3858 28.484 26.6738 28.26C26.7058 28.228 26.7378 28.228 26.7378 28.196C30.1298 25.222 32.3378 20.844 32.3378 15.984ZM16.3378 29.986C13.3298 29.986 10.5778 29.026 8.30583 27.428C8.33783 27.172 8.40183 26.918 8.46583 26.662C8.65714 25.9684 8.93676 25.3023 9.29783 24.68C9.64983 24.072 10.0658 23.528 10.5778 23.048C11.0578 22.568 11.6338 22.122 12.2098 21.77C12.8178 21.418 13.4578 21.162 14.1618 20.97C14.8715 20.7799 15.6031 20.6838 16.3378 20.684C18.5193 20.6675 20.6209 21.5044 22.1938 23.016C22.9298 23.752 23.5058 24.6153 23.9218 25.606C24.1458 26.182 24.3058 26.7893 24.4018 27.428C22.0402 29.0883 19.2247 29.9814 16.3378 29.986ZM11.4418 15.186C11.1605 14.5403 11.0187 13.8423 11.0258 13.138C11.0258 12.436 11.1538 11.732 11.4418 11.092C11.7298 10.452 12.1138 9.878 12.5938 9.398C13.0738 8.918 13.6498 8.536 14.2898 8.248C14.9298 7.96 15.6338 7.832 16.3378 7.832C17.0738 7.832 17.7458 7.96 18.3858 8.248C19.0258 8.536 19.6018 8.92 20.0818 9.398C20.5618 9.878 20.9458 10.454 21.2338 11.092C21.5218 11.732 21.6498 12.436 21.6498 13.138C21.6498 13.874 21.5218 14.546 21.2338 15.184C20.9575 15.8154 20.5669 16.3904 20.0818 16.88C19.592 17.3644 19.0171 17.7542 18.3858 18.03C17.0633 18.5723 15.5804 18.5723 14.2578 18.03C13.6266 17.7542 13.0516 17.3644 12.5618 16.88C12.0763 16.3973 11.6951 15.822 11.4418 15.186ZM26.2898 25.798C26.2898 25.734 26.2578 25.702 26.2578 25.638C25.9437 24.6366 25.4798 23.6885 24.8818 22.826C24.2834 21.9571 23.5486 21.1906 22.7058 20.556C22.0619 20.0715 21.3639 19.6634 20.6258 19.34C20.96 19.1164 21.2709 18.8598 21.5538 18.574C22.0309 18.103 22.4499 17.5766 22.8018 17.006C23.513 15.8427 23.8792 14.5013 23.8578 13.138C23.8683 12.129 23.6723 11.1285 23.2818 10.198C22.8968 9.3013 22.3427 8.48714 21.6498 7.8C20.9563 7.1221 20.1423 6.57949 19.2498 6.2C18.318 5.80971 17.3161 5.61436 16.3058 5.626C15.2955 5.61499 14.2935 5.81102 13.3618 6.202C12.4595 6.57686 11.6429 7.13145 10.9618 7.832C10.2804 8.52194 9.73729 9.33591 9.36183 10.23C8.97139 11.1605 8.77537 12.161 8.78583 13.17C8.78583 13.874 8.88183 14.5453 9.07383 15.184C9.26583 15.856 9.52183 16.464 9.87383 17.038C10.1938 17.614 10.6418 18.126 11.1218 18.606C11.4098 18.894 11.7298 19.1493 12.0818 19.372C11.3404 19.7021 10.642 20.1211 10.0018 20.62C9.16983 21.26 8.43383 22.026 7.82583 22.858C7.22238 23.7173 6.75802 24.6662 6.44983 25.67C6.41783 25.734 6.41783 25.798 6.41783 25.83C3.88983 23.272 2.32183 19.82 2.32183 15.984C2.32183 8.28 8.62583 1.982 16.3378 1.982C24.0498 1.982 30.3538 8.28 30.3538 15.984C30.3496 19.6639 28.8885 23.1925 26.2898 25.798Z" fill="white"/>
</svg>
