<svg width="30" height="30" viewBox="0 0 30 30" fill="none" xmlns="http://www.w3.org/2000/svg">
<path d="M25.2568 0.00683594C27.8989 0.140529 30 2.32472 30 5V25L29.9932 25.2568C29.8638 27.8138 27.8138 29.8638 25.2568 29.9932L25 30H5C2.32472 30 0.140529 27.8989 0.00683594 25.2568L0 25V5C3.22139e-07 2.23858 2.23858 8.0532e-08 5 0H25L25.2568 0.00683594ZM15 18.2832C14.2836 18.283 13.5699 18.3762 12.8779 18.5615C12.1916 18.7487 11.5674 18.9986 10.9746 19.3418C10.4131 19.685 9.8517 20.12 9.38379 20.5879C8.88467 21.0558 8.47891 21.586 8.13574 22.1787C7.7837 22.7855 7.51074 23.4351 7.32422 24.1113L7.32129 24.123C7.25988 24.3687 7.20389 24.6493 7.16895 24.8584C7.11241 25.1967 7.03561 25.5177 6.96289 25.8223C6.91168 26.0367 6.87952 27.0304 6.84766 28H23.0654C23.0326 26.8277 22.9728 25.3969 22.8623 24.8584C22.7687 24.2358 22.6129 23.6435 22.3945 23.082C21.9889 22.1161 21.4266 21.2742 20.709 20.5566C19.1754 19.083 17.1268 18.2672 15 18.2832ZM5 2C3.34315 2 2 3.34315 2 5V25C2 26.6071 3.26367 27.9187 4.85156 27.9961C4.94629 26.8474 5.03786 24.328 5.32812 23.2998C5.32813 23.2685 5.32836 23.2066 5.35938 23.1445C5.65985 22.1659 6.11185 21.2401 6.7002 20.4023C7.29298 19.5912 8.01109 18.8447 8.82227 18.2207C9.44639 17.7343 10.1277 17.3257 10.8506 17.0039C10.5074 16.7868 10.1949 16.5376 9.91406 16.2568C9.44617 15.7889 9.00924 15.29 8.69727 14.7285C8.35407 14.1689 8.10419 13.5751 7.91699 12.9199C7.72993 12.2975 7.63675 11.6431 7.63672 10.957C7.62652 9.97323 7.81756 8.99706 8.19824 8.08984C8.5643 7.21828 9.09354 6.42454 9.75781 5.75195C10.4219 5.06892 11.2189 4.52857 12.0986 4.16309C13.007 3.78197 13.9838 3.59083 14.9688 3.60156C15.9537 3.59023 16.9304 3.78063 17.8389 4.16113C18.7089 4.53108 19.5025 5.05988 20.1787 5.7207C20.8542 6.3906 21.3951 7.18442 21.7705 8.05859C22.1512 8.96581 22.3422 9.94198 22.332 10.9258C22.3528 12.2549 21.9951 13.5631 21.3018 14.6973C20.9587 15.2534 20.55 15.7665 20.085 16.2256C19.8092 16.5041 19.5065 16.7547 19.1807 16.9727C19.9003 17.2879 20.5812 17.6858 21.209 18.1582C22.0305 18.7768 22.7467 19.5241 23.3301 20.3711C23.9131 21.2121 24.3656 22.1369 24.6719 23.1133C24.6719 23.1444 24.6797 23.1681 24.6875 23.1914C24.6952 23.2146 24.703 23.2378 24.7031 23.2686C24.7477 23.4832 24.7907 23.682 24.8311 23.8691C24.9426 24.3869 25.0354 26.7908 25.0996 27.9971C26.7103 27.9445 28 26.6235 28 25V5C28 3.34315 26.6569 2 25 2H5ZM15 5.75195C14.3136 5.75195 13.6269 5.8774 13.0029 6.1582C12.379 6.43899 11.8176 6.81135 11.3496 7.2793C10.8817 7.74725 10.5073 8.30674 10.2266 8.93066C9.94576 9.55466 9.82031 10.2413 9.82031 10.9258C9.81339 11.6123 9.95233 12.2924 10.2266 12.9219C10.4735 13.542 10.845 14.1036 11.3184 14.5742C11.7958 15.0464 12.3563 15.4265 12.9717 15.6953C14.2612 16.2241 15.7076 16.2241 16.9971 15.6953C17.6124 15.4265 18.1729 15.0464 18.6504 14.5742C19.1234 14.0968 19.504 13.5355 19.7734 12.9199C20.0541 12.2981 20.1787 11.6431 20.1787 10.9258C20.1787 10.2413 20.0542 9.55466 19.7734 8.93066C19.4927 8.30872 19.1183 7.74725 18.6504 7.2793C18.1825 6.81338 17.6209 6.43898 16.9971 6.1582C16.3731 5.87743 15.7175 5.75198 15 5.75195Z" fill="white"/>
</svg>
