<svg width="32" height="32" viewBox="0 0 32 32" fill="none" xmlns="http://www.w3.org/2000/svg">
<path d="M15.078 0.00284218C19.0521 -0.073544 22.9016 1.39233 25.8183 4.09269C28.735 6.79314 30.4922 10.5189 30.7216 14.4872C30.9509 18.4554 29.6348 22.3584 27.0487 25.3769V25.3788L31.6679 29.996C31.8832 30.219 32.0026 30.5181 31.9999 30.828C31.9972 31.1379 31.8723 31.4341 31.6532 31.6532C31.434 31.8725 31.1371 31.9972 30.8271 31.9999C30.517 32.0026 30.2181 31.8833 29.995 31.6679L25.3759 27.0487C22.3573 29.6349 18.4545 30.952 14.4862 30.7226C10.518 30.4932 6.79314 28.735 4.09269 25.8183C1.39224 22.9015 -0.07365 19.0522 0.00285045 15.078C0.0793902 11.1039 1.69218 7.31351 4.50285 4.50284C7.31353 1.69231 11.104 0.07934 15.078 0.00284218ZM15.3739 2.36612C11.924 2.36612 8.61525 3.73629 6.1757 6.17569C3.7362 8.6152 2.36524 11.924 2.36516 15.3739C2.36516 18.824 3.73612 22.1336 6.1757 24.5732C8.61524 27.0125 11.9241 28.3827 15.3739 28.3827C18.8238 28.3827 22.1327 27.0125 24.5722 24.5732C27.0118 22.1336 28.3827 18.824 28.3827 15.3739C28.3826 11.924 27.0117 8.6152 24.5722 6.17569C22.1327 3.73619 18.8239 2.36619 15.3739 2.36612Z" fill="white"/>
</svg>
