<svg width="30" height="29" viewBox="0 0 30 29" fill="none" xmlns="http://www.w3.org/2000/svg">
<path d="M2.51355 9.97852V24.9391C2.51355 25.7327 2.80312 26.4938 3.31855 27.0549C3.83399 27.616 4.53307 27.9313 5.26201 27.9313H24.5012C25.2302 27.9313 25.9292 27.616 26.4447 27.0549C26.9601 26.4938 27.2497 25.7327 27.2497 24.9391V9.97852" stroke="white" stroke-width="2"/>
<path d="M26.542 1H21.056L21.7431 8.48031C21.7431 8.48031 23.1174 9.97637 25.1787 9.97637C26.2608 9.97792 27.3061 9.54911 28.1182 8.77055C28.2043 8.68347 28.2685 8.57379 28.3046 8.45199C28.3407 8.33019 28.3475 8.20035 28.3243 8.07488L27.3541 1.74803C27.3217 1.53902 27.2223 1.34926 27.0737 1.21235C26.925 1.07544 26.7367 1.00021 26.542 1Z" stroke="white" stroke-width="2"/>
<path d="M21.056 1L21.7432 8.48031C21.7432 8.48031 20.3689 9.97637 18.3076 9.97637C16.2462 9.97637 14.872 8.48031 14.872 8.48031V1H21.056Z" stroke="white" stroke-width="2"/>
<path d="M14.872 1V8.48031C14.872 8.48031 13.4978 9.97637 11.4364 9.97637C9.37508 9.97637 8.00085 8.48031 8.00085 8.48031L8.68797 1H14.872Z" stroke="white" stroke-width="2"/>
<path d="M8.68794 1H3.20339C3.00824 0.999921 2.8194 1.0752 2.67043 1.21244C2.52147 1.34968 2.42205 1.53999 2.38985 1.74953L1.42102 8.07637C1.39784 8.20184 1.40462 8.33169 1.44071 8.45349C1.4768 8.57528 1.541 8.68497 1.62715 8.77204C2.0779 9.2059 3.08521 9.97787 4.56525 9.97787C6.6266 9.97787 8.00083 8.48181 8.00083 8.48181L8.68794 1Z" stroke="white" stroke-width="2"/>
</svg>
