<svg width="16" height="16" viewBox="0 0 16 16" fill="none" xmlns="http://www.w3.org/2000/svg">
<path d="M8 0C12.4184 0 16 3.58142 16 7.9996C16 12.4178 12.4184 15.9992 8 15.9992C6.7232 16.001 5.46466 15.6959 4.33041 15.1096L1.26961 15.9632C1.09884 16.0109 0.918472 16.0123 0.746986 15.9673C0.575499 15.9223 0.419059 15.8325 0.293694 15.7071C0.16833 15.5818 0.0785479 15.4253 0.0335484 15.2539C-0.0114511 15.0824 -0.0100505 14.902 0.0376067 14.7313L0.892006 11.673C0.304288 10.5378 -0.00165504 9.27789 6.73355e-06 7.9996C6.73355e-06 3.58142 3.58161 0 8 0ZM8 1.19994C6.19653 1.19994 4.46693 1.91633 3.19168 3.19151C1.91643 4.4667 1.20001 6.19622 1.20001 7.9996C1.20001 9.17554 1.49841 10.3059 2.05841 11.309L2.17841 11.525L1.28881 14.7121L4.47841 13.8225L4.69441 13.9425C5.60191 14.447 6.61291 14.737 7.64988 14.7903C8.68685 14.8436 9.72225 14.6587 10.6767 14.2498C11.6311 13.8409 12.4792 13.2188 13.156 12.4314C13.8327 11.6439 14.3201 10.712 14.5808 9.70693C14.8416 8.70191 14.8687 7.65053 14.66 6.63342C14.4514 5.6163 14.0126 4.66047 13.3773 3.83922C12.742 3.01796 11.9271 2.3531 10.9949 1.8956C10.0628 1.43811 9.03834 1.20014 8 1.19994ZM8 10.7995C8.21218 10.7995 8.41566 10.8837 8.56569 11.0338C8.71572 11.1838 8.8 11.3873 8.8 11.5994C8.8 11.8116 8.71572 12.0151 8.56569 12.1651C8.41566 12.3151 8.21218 12.3994 8 12.3994C7.78783 12.3994 7.58435 12.3151 7.43432 12.1651C7.28429 12.0151 7.2 11.8116 7.2 11.5994C7.2 11.3873 7.28429 11.1838 7.43432 11.0338C7.58435 10.8837 7.78783 10.7995 8 10.7995ZM8 3.79981C8.58348 3.79981 9.14306 4.03158 9.55564 4.44414C9.96822 4.8567 10.2 5.41625 10.2 5.9997C10.2 6.80766 9.9624 7.25883 9.3592 7.8868L9.224 8.0236C8.7264 8.52117 8.6 8.73236 8.6 9.19954C8.6 9.35866 8.53679 9.51126 8.42427 9.62378C8.31175 9.7363 8.15913 9.79951 8 9.79951C7.84087 9.79951 7.68826 9.7363 7.57574 9.62378C7.46322 9.51126 7.4 9.35866 7.4 9.19954C7.4 8.39158 7.6376 7.9404 8.2408 7.31243L8.376 7.17564C8.8736 6.67806 9 6.46687 9 5.9997C8.99918 5.74393 8.90037 5.4982 8.7239 5.31306C8.54744 5.12791 8.30673 5.01741 8.05129 5.0043C7.79584 4.99118 7.54508 5.07644 7.35058 5.24255C7.15608 5.40865 7.03262 5.64297 7.0056 5.8973L7 5.9997C7 6.15882 6.93679 6.31142 6.82427 6.42394C6.71175 6.53646 6.55913 6.59967 6.4 6.59967C6.24087 6.59967 6.08826 6.53646 5.97574 6.42394C5.86322 6.31142 5.8 6.15882 5.8 5.9997C5.8 5.41625 6.03179 4.8567 6.44437 4.44414C6.85695 4.03158 7.41653 3.79981 8 3.79981Z" fill="white" fill-opacity="0.5"/>
</svg>
